HIERARCHY
ROOT Hips
{
	OFFSET 0.00 0.00 0.00
	CHANNELS 6 Xposition Yposition Zposition Xrotation Yrotation Zrotation
	JOINT Spine
	{
		OFFSET 0.00000 1.15266 1.72900
		CHANNELS 3 Xrotation Yrotation Zrotation
		JOINT Spine1
		{
			OFFSET 0.00000 0.40032 2.27031
			CHANNELS 3 Xrotation Yrotation Zrotation
			JOINT Spine2
			{
				OFFSET 0.00000 0.20092 2.29656
				CHANNELS 3 Xrotation Yrotation Zrotation
				JOINT Spine3
				{
					OFFSET 0.00000 0.00000 2.30533
					CHANNELS 3 Xrotation Yrotation Zrotation
					JOINT Neck
					{
						OFFSET 0.00000 -0.86449 6.05149
						CHANNELS 3 Xrotation Yrotation Zrotation
						JOINT Head
						{
							OFFSET 0.00000 -0.55043 3.12167
							CHANNELS 3 Xrotation Yrotation Zrotation
							End Site
							{
								OFFSET 0.00000 0.00000 3.73175
							}
						}
					}
					JOINT RightShoulder
					{
						OFFSET -0.78828 -1.31380 4.25672
						CHANNELS 3 Xrotation Yrotation Zrotation
						JOINT RightArm
						{
							OFFSET -3.91513 0.00000 0.00000
							CHANNELS 3 Xrotation Yrotation Zrotation
							JOINT RightForeArm
							{
								OFFSET -6.91491 0.00000 0.00000
								CHANNELS 3 Xrotation Yrotation Zrotation
								JOINT RightHand
								{
									OFFSET -6.09622 0.00000 0.00000
									CHANNELS 3 Xrotation Yrotation Zrotation
									JOINT RightHandEnd
									{
										OFFSET -1.74995 0.00000 0.00000
										CHANNELS 3 Xrotation Yrotation Zrotation
										End Site
										{
											OFFSET -1.74995 0.00000 0.00000
										}
									}
									JOINT RightHandThumb1
									{
										OFFSET -0.69998 -1.16663 -0.46665
										CHANNELS 3 Yrotation Xrotation Zrotation
										End Site
										{
											OFFSET -1.69032 -0.45292 0.00000
										}
									}
								}
							}
						}
					}
					JOINT LeftShoulder
					{
						OFFSET 0.78828 -1.31380 4.25672
						CHANNELS 3 Xrotation Yrotation Zrotation
						JOINT LeftArm
						{
							OFFSET 3.91513 0.00000 0.00000
							CHANNELS 3 Xrotation Yrotation Zrotation
							JOINT LeftForeArm
							{
								OFFSET 6.91491 0.00000 0.00000
								CHANNELS 3 Xrotation Yrotation Zrotation
								JOINT LeftHand
								{
									OFFSET 6.09622 0.00000 0.00000
									CHANNELS 3 Xrotation Yrotation Zrotation
									JOINT LeftHandEnd
									{
										OFFSET 1.74995 0.00000 0.00000
										CHANNELS 3 Xrotation Yrotation Zrotation
										End Site
										{
											OFFSET 1.74995 0.00000 0.00000
										}
									}
									JOINT LeftHandThumb1
									{
										OFFSET 0.69998 -1.16663 -0.46665
										CHANNELS 3 Yrotation Xrotation Zrotation
										End Site
										{
											OFFSET 1.69032 -0.45292 0.00000
										}
									}
								}
							}
						}
					}
				}
			}
		}
	}
	JOINT RightUpLeg
	{
		OFFSET -2.33857 0.00000 -0.68318
		CHANNELS 3 Xrotation Yrotation Zrotation
		JOINT RightLeg
		{
			OFFSET 0.00000 0.00000 -10.74496
			CHANNELS 3 Xrotation Yrotation Zrotation
			JOINT RightFoot
			{
				OFFSET 0.00000 0.00000 -10.93085
				CHANNELS 3 Xrotation Yrotation Zrotation
				JOINT RightToeBase
				{
					OFFSET 0.00000 -4.08727 -1.48765
					CHANNELS 3 Xrotation Yrotation Zrotation
					End Site
					{
						OFFSET 0.00000 -1.89187 -0.00000
					}
				}
			}
		}
	}
	JOINT LeftUpLeg
	{
		OFFSET 2.33857 0.00000 -0.68318
		CHANNELS 3 Xrotation Yrotation Zrotation
		JOINT LeftLeg
		{
			OFFSET 0.00000 0.00000 -10.74496
			CHANNELS 3 Xrotation Yrotation Zrotation
			JOINT LeftFoot
			{
				OFFSET 0.00000 0.00000 -10.93085
				CHANNELS 3 Xrotation Yrotation Zrotation
				JOINT LeftToeBase
				{
					OFFSET 0.00000 -4.08727 -1.48765
					CHANNELS 3 Xrotation Yrotation Zrotation
					End Site
					{
						OFFSET 0.00000 -1.89187 -0.00000
					}
				}
			}
		}
	}
}
MOTION
Frames: 15
Frame Time: 0.016683
 -1.2344 -0.5247 25.0481 -6.3389 1.5268 158.9231 -0.9467 -0.8818 0.6613 -0.4314 -2.9862 0.0497 0.9160 3.3771 10.6242 0.0771 0.8801 1.5412 -6.2439 3.6810 -11.9512 3.7770 0.7580 -17.8822 -10.8288 5.0991 -9.2866 -4.1143 2.9629 8.3573 0.0000 0.0000 14.0990 -6.3276 1.2965 -11.5775 0.0000 0.0000 0.0000 -0.0000 -0.0000 -0.0000 -9.2830 -2.0240 6.9341 -19.4054 1.9126 -14.5823 -0.0000 0.0000 4.8586 2.9106 7.4251 7.6107 0.0000 0.0000 -0.0000 0.0000 0.0000 -0.0000 -8.3456 -2.7124 -6.1466 2.3003 0.0000 0.0000 -0.5011 0.0225 25.7021 4.7461 0.0000 0.0000 -4.7722 -0.8451 8.3983 0.2919 0.0000 0.0000 -5.3589 2.0117 3.7720 -2.8200 0.0000 -0.0000
 -1.2329 -0.5337 25.0485 -6.3495 1.5416 158.9241 -0.9403 -0.8748 0.6582 -0.4358 -2.9893 0.0496 0.9187 3.3777 10.6160 0.0755 0.8762 1.5413 -6.2289 3.7007 -11.9535 3.7775 0.7646 -17.8784 -10.8106 5.1304 -9.2734 -4.1060 2.9255 8.3190 0.0000 0.0000 14.1165 -6.3230 1.3235 -11.5748 -0.0000 0.0000 -0.0000 -0.0000 -0.0000 0.0000 -9.2656 -2.0564 6.9236 -19.3688 1.8881 -14.5330 -0.0000 0.0000 4.8463 2.9004 7.4091 7.6073 0.0000 0.0000 0.0000 0.0000 -0.0000 0.0000 -8.3914 -2.7115 -6.1460 2.3197 0.0000 0.0000 -0.4835 0.0260 25.6974 4.7251 0.0000 0.0000 -4.8264 -0.8468 8.4096 0.3281 0.0000 0.0000 -5.3617 1.9495 3.7626 -2.7501 0.0000 -0.0000
 -1.2302 -0.5463 25.0488 -6.3498 1.5528 158.9254 -0.9193 -0.8773 0.6525 -0.4300 -2.9738 0.0511 0.9141 3.3585 10.6080 0.0753 0.8755 1.5396 -6.1961 3.7338 -11.9571 3.7707 0.7710 -17.8708 -10.7848 5.1834 -9.2519 -4.0837 2.8641 8.2630 0.0000 0.0000 14.1275 -6.3253 1.3580 -11.5707 -0.0000 0.0000 -0.0000 0.0000 -0.0000 0.0000 -9.2488 -2.1176 6.9005 -19.3092 1.8673 -14.4473 -0.0000 0.0000 4.8182 2.8606 7.3878 7.5985 0.0000 -0.0000 -0.0000 -0.0000 0.0000 0.0000 -8.4353 -2.7155 -6.1436 2.3436 0.0000 0.0000 -0.4562 0.0254 25.6905 4.6910 0.0000 0.0000 -4.8855 -0.8564 8.4325 0.3829 0.0000 0.0000 -5.3661 1.9014 3.7395 -2.6940 0.0000 -0.0000
 -1.2267 -0.5620 25.0489 -6.3576 1.5676 158.9281 -0.8992 -0.8831 0.6453 -0.4278 -2.9589 0.0535 0.9124 3.3368 10.5984 0.0738 0.8755 1.5366 -6.1480 3.7781 -11.9575 3.7580 0.7790 -17.8582 -10.7578 5.2468 -9.2241 -4.0482 2.7912 8.1988 0.0000 0.0000 14.1248 -6.3393 1.3841 -11.5669 0.0000 0.0000 -0.0000 0.0000 -0.0000 -0.0000 -9.2321 -2.1906 6.8751 -19.2449 1.8448 -14.3474 -0.0000 0.0000 4.7789 2.8111 7.3673 7.5845 0.0000 0.0000 0.0000 -0.0000 -0.0000 0.0000 -8.4999 -2.7221 -6.1435 2.3786 0.0000 0.0000 -0.4245 0.0214 25.6847 4.6475 0.0000 0.0000 -4.9696 -0.8717 8.4582 0.4575 0.0000 0.0000 -5.3725 1.8711 3.7113 -2.6545 0.0000 -0.0000
 -1.2228 -0.5786 25.0488 -6.3587 1.5831 158.9308 -0.8721 -0.8877 0.6407 -0.4153 -2.9542 0.0530 0.8980 3.3227 10.5908 0.0716 0.8735 1.5347 -6.0857 3.8315 -11.9569 3.7467 0.7900 -17.8370 -10.7323 5.3190 -9.1950 -4.0057 2.7075 8.1318 0.0000 0.0000 14.1090 -6.3637 1.3903 -11.5623 0.0000 0.0000 -0.0000 0.0000 -0.0000 0.0000 -9.2143 -2.2694 6.8489 -19.1910 1.8310 -14.2467 -0.0000 0.0000 4.7368 2.7827 7.3434 7.5619 0.0000 0.0000 0.0000 0.0000 0.0000 0.0000 -8.5631 -2.7275 -6.1406 2.4205 0.0000 0.0000 -0.3966 0.0172 25.6765 4.6020 0.0000 0.0000 -5.0524 -0.8870 8.4969 0.5387 0.0000 0.0000 -5.3795 1.8531 3.6704 -2.6186 0.0000 -0.0000
 -1.2185 -0.5946 25.0486 -6.3564 1.5934 158.9405 -0.8369 -0.9015 0.6339 -0.4106 -2.9384 0.0557 0.8872 3.2931 10.5808 0.0672 0.8766 1.5282 -6.0184 3.8893 -11.9494 3.7470 0.8063 -17.8079 -10.7129 5.3921 -9.1636 -3.9630 2.6206 8.0661 0.0000 0.0000 14.0850 -6.3944 1.3690 -11.5552 0.0000 0.0000 -0.0000 -0.0000 0.0000 0.0000 -9.1994 -2.3479 6.8288 -19.1574 1.8340 -14.1558 -0.0000 0.0000 4.6980 2.7947 7.3176 7.5319 0.0000 -0.0000 0.0000 -0.0000 -0.0000 0.0000 -8.6166 -2.7364 -6.1478 2.4575 0.0000 0.0000 -0.3703 0.0177 25.6706 4.5591 0.0000 0.0000 -5.1289 -0.9054 8.5286 0.6184 0.0000 0.0000 -5.3884 1.8332 3.6307 -2.5717 0.0000 -0.0000
 -1.2142 -0.6084 25.0484 -6.3456 1.6006 158.9579 -0.7976 -0.9177 0.6251 -0.4003 -2.9181 0.0592 0.8702 3.2558 10.5669 0.0614 0.8802 1.5247 -5.9519 3.9502 -11.9398 3.7687 0.8273 -17.7711 -10.6991 5.4642 -9.1337 -3.9227 2.5350 7.9997 0.0000 0.0000 14.0622 -6.4289 1.3203 -11.5425 -0.0000 0.0000 -0.0000 -0.0000 -0.0000 0.0000 -9.1811 -2.4167 6.8181 -19.1515 1.8549 -14.0926 -0.0000 0.0000 4.6770 2.8434 7.2991 7.4913 -0.0000 -0.0000 0.0000 0.0000 -0.0000 -0.0000 -8.6520 -2.7437 -6.1583 2.4871 0.0000 0.0000 -0.3517 0.0284 25.6591 4.5235 0.0000 0.0000 -5.1837 -0.9193 8.5545 0.6796 0.0000 0.0000 -5.3923 1.8005 3.5917 -2.5044 0.0000 -0.0000
 -1.2102 -0.6207 25.0483 -6.3444 1.6130 158.9849 -0.7689 -0.9273 0.6208 -0.3930 -2.9094 0.0603 0.8518 3.2249 10.5470 0.0542 0.8817 1.5178 -5.8921 4.0100 -11.9275 3.8132 0.8496 -17.7288 -10.6901 5.5278 -9.1068 -3.8855 2.4560 7.9377 0.0000 0.0000 14.0445 -6.4643 1.2542 -11.5231 -0.0000 0.0000 0.0000 -0.0000 -0.0000 0.0000 -9.1625 -2.4775 6.8151 -19.1638 1.8903 -14.0506 -0.0000 0.0000 4.6706 2.9004 7.3001 7.4484 -0.0000 0.0000 -0.0000 0.0000 0.0000 0.0000 -8.6928 -2.7478 -6.1742 2.5118 0.0000 0.0000 -0.3410 0.0533 25.6423 4.4957 0.0000 0.0000 -5.2402 -0.9273 8.5743 0.7245 0.0000 0.0000 -5.3886 1.7562 3.5521 -2.4253 0.0000 -0.0000
 -1.2061 -0.6313 25.0483 -6.3441 1.6247 159.0239 -0.7444 -0.9347 0.6160 -0.3825 -2.9054 0.0578 0.8293 3.1958 10.5220 0.0479 0.8811 1.5116 -5.8387 4.0680 -11.9169 3.8781 0.8689 -17.6856 -10.6806 5.5842 -9.0825 -3.8475 2.3846 7.8770 0.0000 0.0000 14.0333 -6.4989 1.1811 -11.4961 -0.0000 0.0000 -0.0000 0.0000 -0.0000 -0.0000 -9.1447 -2.5375 6.8137 -19.1814 1.9401 -14.0205 -0.0000 0.0000 4.6759 2.9291 7.3270 7.4081 0.0000 -0.0000 -0.0000 -0.0000 -0.0000 0.0000 -8.7244 -2.7515 -6.1937 2.5250 0.0000 0.0000 -0.3339 0.0902 25.6164 4.4731 0.0000 0.0000 -5.2844 -0.9323 8.5824 0.7479 0.0000 0.0000 -5.3741 1.7155 3.5139 -2.3572 0.0000 -0.0000
 -1.2019 -0.6413 25.0484 -6.3544 1.6382 159.0762 -0.7287 -0.9419 0.6087 -0.3806 -2.8957 0.0584 0.8151 3.1561 10.4840 0.0412 0.8818 1.5036 -5.7883 4.1244 -11.9088 3.9514 0.8805 -17.6457 -10.6692 5.6326 -9.0599 -3.8062 2.3235 7.8236 0.0000 0.0000 14.0205 -6.5357 1.1106 -11.4600 0.0000 -0.0000 -0.0000 -0.0000 -0.0000 -0.0000 -9.1308 -2.5987 6.8113 -19.1915 1.9952 -13.9936 -0.0000 0.0000 4.6850 2.9024 7.3808 7.3783 0.0000 -0.0000 0.0000 0.0000 -0.0000 -0.0000 -8.7609 -2.7562 -6.2204 2.5297 0.0000 0.0000 -0.3274 0.1343 25.5846 4.4526 0.0000 0.0000 -5.3347 -0.9381 8.5755 0.7625 0.0000 0.0000 -5.3514 1.6970 3.4777 -2.3256 0.0000 -0.0000
 -1.1971 -0.6505 25.0484 -6.3605 1.6482 159.1355 -0.7100 -0.9468 0.6043 -0.3748 -2.8954 0.0543 0.7967 3.1244 10.4419 0.0363 0.8803 1.4932 -5.7338 4.1761 -11.9066 4.0213 0.8838 -17.6119 -10.6555 5.6739 -9.0371 -3.7620 2.2710 7.7788 0.0000 0.0000 14.0017 -6.5724 1.0471 -11.4189 -0.0000 0.0000 -0.0000 -0.0000 -0.0000 0.0000 -9.1275 -2.6745 6.7993 -19.1828 2.0575 -13.9532 -0.0000 0.0000 4.6895 2.8230 7.4440 7.3580 -0.0000 -0.0000 0.0000 -0.0000 0.0000 0.0000 -8.7844 -2.7625 -6.2468 2.5252 0.0000 0.0000 -0.3208 0.1777 25.5470 4.4336 0.0000 0.0000 -5.3704 -0.9455 8.5625 0.7634 0.0000 0.0000 -5.3199 1.7129 3.4392 -2.3399 0.0000 -0.0000
 -1.1921 -0.6602 25.0483 -6.3843 1.6634 159.1994 -0.7082 -0.9564 0.5994 -0.3708 -2.8883 0.0509 0.7801 3.0884 10.3928 0.0326 0.8793 1.4820 -5.6733 4.2244 -11.9102 4.0755 0.8811 -17.5848 -10.6441 5.7043 -9.0163 -3.7229 2.2330 7.7511 0.0000 0.0000 13.9745 -6.6094 0.9889 -11.3782 -0.0000 0.0000 -0.0000 0.0000 -0.0000 -0.0000 -9.1357 -2.7510 6.7829 -19.1615 2.1114 -13.9093 -0.0000 0.0000 4.6878 2.7157 7.5009 7.3477 -0.0000 -0.0000 -0.0000 0.0000 0.0000 0.0000 -8.8281 -2.7697 -6.2747 2.5236 0.0000 0.0000 -0.3151 0.2147 25.5088 4.4179 0.0000 0.0000 -5.4277 -0.9560 8.5429 0.7691 0.0000 0.0000 -5.2881 1.7551 3.4013 -2.3843 0.0000 -0.0000
 -1.1863 -0.6681 25.0481 -6.3810 1.6674 159.2605 -0.6820 -0.9667 0.5937 -0.3625 -2.8861 0.0488 0.7615 3.0564 10.3434 0.0288 0.8781 1.4706 -5.6010 4.2700 -11.9212 4.1125 0.8773 -17.5640 -10.6343 5.7332 -8.9967 -3.7015 2.2002 7.7365 0.0000 0.0000 13.9457 -6.6383 0.9366 -11.3392 -0.0000 -0.0000 0.0000 -0.0000 -0.0000 0.0000 -9.1567 -2.8358 6.7557 -19.1291 2.1640 -13.8530 -0.0000 0.0000 4.6753 2.6218 7.5243 7.3455 0.0000 0.0000 0.0000 0.0000 -0.0000 -0.0000 -8.8284 -2.7783 -6.3048 2.5083 0.0000 0.0000 -0.3089 0.2415 25.4777 4.4090 0.0000 0.0000 -5.4426 -0.9674 8.5252 0.7612 0.0000 0.0000 -5.2576 1.8013 3.3621 -2.4220 0.0000 -0.0000
 -1.1803 -0.6754 25.0479 -6.3838 1.6746 159.3152 -0.6619 -0.9840 0.5873 -0.3543 -2.8710 0.0493 0.7407 3.0160 10.2938 0.0254 0.8786 1.4603 -5.5225 4.3135 -11.9357 4.1319 0.8801 -17.5470 -10.6327 5.7532 -8.9772 -3.7041 2.1823 7.7340 0.0000 0.0000 13.9305 -6.6547 0.8928 -11.3074 0.0000 0.0000 -0.0000 0.0000 -0.0000 0.0000 -9.1860 -2.9102 6.7290 -19.0992 2.2011 -13.8032 -0.0000 0.0000 4.6595 2.5734 7.5082 7.3399 -0.0000 0.0000 -0.0000 0.0000 -0.0000 0.0000 -8.8352 -2.7860 -6.3351 2.4963 0.0000 0.0000 -0.3055 0.2607 25.4552 4.4102 0.0000 0.0000 -5.4637 -0.9781 8.5115 0.7543 0.0000 0.0000 -5.2351 1.8201 3.3248 -2.4127 0.0000 -0.0000
 -1.1740 -0.6816 25.0479 -6.3804 1.6849 159.3572 -0.6372 -0.9950 0.5828 -0.3431 -2.8707 0.0457 0.7128 2.9908 10.2545 0.0221 0.8754 1.4522 -5.4415 4.3561 -11.9534 4.1419 0.8944 -17.5310 -10.6321 5.7655 -8.9626 -3.7354 2.1800 7.7419 0.0000 0.0000 13.9418 -6.6570 0.8624 -11.2798 0.0000 -0.0000 0.0000 0.0000 -0.0000 -0.0000 -9.2171 -2.9750 6.7043 -19.0771 2.2260 -13.7644 -0.0000 0.0000 4.6441 2.5780 7.4535 7.3269 0.0000 0.0000 -0.0000 0.0000 0.0000 0.0000 -8.8352 -2.7899 -6.3571 2.4864 0.0000 0.0000 -0.3070 0.2778 25.4375 4.4218 0.0000 0.0000 -5.4732 -0.9831 8.4990 0.7397 0.0000 0.0000 -5.2188 1.7925 3.2989 -2.3354 0.0000 -0.0000
